Coordinates
version=1
nRows=10
nColumns=40
inDegrees=yes

Units are S.I. units (second, meters, Newtons, ...)
Angles are in degrees.

endheader
time	pelvis_tilt	pelvis_list	pelvis_rotation	pelvis_tx	pelvis_ty	pelvis_tz	hip_flexion_r	hip_adduction_r	hip_rotation_r	knee_angle_r	knee_angle_r_beta	ankle_angle_r	subtalar_angle_r	mtp_angle_r	hip_flexion_l	hip_adduction_l	hip_rotation_l	knee_angle_l	knee_angle_l_beta	ankle_angle_l	subtalar_angle_l	mtp_angle_l	lumbar_extension	lumbar_bending	lumbar_rotation	arm_flex_r	arm_add_r	arm_rot_r	elbow_flex_r	pro_sup_r	wrist_flex_r	wrist_dev_r	arm_flex_l	arm_add_l	arm_rot_l	elbow_flex_l	pro_sup_l	wrist_flex_l	wrist_dev_l
      1.38000000	      1.64968567	     -5.26950114	      3.00560049	      0.67054807	      0.86474913	     -1.00274970	     29.01189718	      5.56691340	    -10.33644395	    -35.12023897	     -0.61296380	     -0.94833331	    -12.55865276	      6.97180202	    -10.58926247	     10.16448444	     10.23873942	    -42.35954558	     -0.73931354	    -19.26338430	      0.60490891	     -9.77670925	     -2.38415678	      9.10555103	     -7.99514270	    -10.59350032	     -8.03103980	     14.07492154	      7.08855276	     89.95437384	      0.00000000	      0.00000000	     17.13475396	     12.66111102	     -7.82744109	     55.02784235	     89.95437384	      0.00000000	      0.00000000
      1.39000000	      1.92594162	     -5.74075361	      3.13043319	      0.68489733	      0.86639477	     -1.00143420	     27.75430731	      6.21428688	    -10.46814913	    -35.40227715	     -0.61788630	      0.52033239	    -12.33501923	      6.71698871	     -9.07457692	     10.85784078	      9.31091880	    -45.36115745	     -0.79170155	    -23.14186939	      1.86361458	     -9.21428484	     -2.51493622	      9.64174219	     -7.74259556	    -10.37114069	     -8.16135964	     13.73209284	      7.08124070	     89.95437384	      0.00000000	      0.00000000	     16.70929215	     12.36909245	     -7.87813952	     54.68308334	     89.95437384	      0.00000000	      0.00000000
      1.40000000	      1.64097865	     -6.31479646	      3.21607713	      0.69835513	      0.86728916	     -1.00023260	     27.07029946	      6.80590920	    -11.00453406	    -35.39898662	     -0.61782887	      1.52875898	    -11.64745138	      7.05516110	     -6.50807844	     11.68699342	      8.54514162	    -48.89662296	     -0.85340706	    -25.77988141	      3.91736147	    -10.58207763	     -2.08685397	     10.29921619	     -7.48518387	     -9.94610979	     -8.11908567	     10.94726352	      6.88785367	     89.95437384	      0.00000000	      0.00000000	     16.24836238	     11.88714953	     -7.72046646	     54.12633013	     89.95437384	      0.00000000	      0.00000000
      1.41000000	      1.81946073	     -6.80890066	      3.28123423	      0.71178305	      0.86906567	     -0.99903253	     25.74001802	      7.42075507	    -11.38571713	    -35.23250143	     -0.61492315	      2.77107762	    -11.02440120	      6.72594759	     -4.56674957	     12.47261259	      8.23474886	    -52.02593320	     -0.90802383	    -26.15616769	      5.66251578	    -10.34784565	     -2.21779775	     10.87107071	     -7.10270410	     -9.59531008	     -8.32882100	     10.91322009	      7.14885418	     89.95437384	      0.00000000	      0.00000000	     15.98719352	     11.47887090	     -7.87954938	     53.24415063	     89.95437384	      0.00000000	      0.00000000
      1.42000000	      1.36251216	     -7.18519181	      3.45717754	      0.72460929	      0.87006860	     -0.99853279	     25.05817702	      7.57411946	    -12.38344974	    -34.85992203	     -0.60842042	      3.50054103	     -9.82892098	      6.22628742	     -1.72482637	     12.89098660	      7.69350308	    -55.19630448	     -0.96335725	    -23.69047555	      8.37509048	    -10.38553130	     -1.65790200	     11.33295676	     -6.88928215	     -9.33297709	     -8.61967389	     10.67264348	      7.65422540	     89.95437384	      0.00000000	      0.00000000	     15.53378015	     10.97086235	     -7.95517276	     52.40126888	     89.95437384	      0.00000000	      0.00000000
      1.43000000	      1.46400568	     -7.44909024	      3.48532721	      0.73759428	      0.87224994	     -0.99769614	     23.60456484	      7.91709436	    -12.79747833	    -34.23021892	     -0.59743002	      4.33080693	     -8.98896665	      5.77190516	      0.23501370	     13.23880662	      7.53592121	    -57.66190979	     -1.00639018	    -20.50127976	      9.49430144	    -10.58856206	     -1.78931573	     11.65158070	     -6.43634883	     -8.90530487	     -8.89296867	     10.64997826	      8.17924189	     89.95437384	      0.00000000	      0.00000000	     15.18759307	     10.52828248	     -8.14344294	     51.37749700	     89.95437384	      0.00000000	      0.00000000
      1.44000000	      1.56001252	     -7.56353927	      3.47107014	      0.75055679	      0.87463076	     -0.99685212	     22.10673284	      8.11043045	    -13.17760127	    -33.54311308	     -0.58543776	      5.07389322	     -8.18200964	      5.28444044	      2.12202220	     13.36709796	      7.48028335	    -59.67334940	     -1.04149642	    -17.08126463	     10.05750083	    -10.74460808	     -1.90983683	     11.79404272	     -5.94522580	     -8.34792601	     -9.12350815	     10.75556642	      8.55832930	     89.95437384	      0.00000000	      0.00000000	     14.84577602	     10.17686333	     -8.54379945	     50.16498202	     89.95437384	      0.00000000	      0.00000000
      1.45000000	      1.72707026	     -7.49750078	      3.29811870	      0.76351055	      0.87732643	     -0.99580103	     20.47488124	      8.26317810	    -13.12874272	    -32.77951899	     -0.57211053	      5.80409168	     -7.54038927	      4.93957311	      3.80195988	     13.22796458	      7.51628176	    -61.14107987	     -1.06711315	    -14.21071022	     10.00199484	    -10.84880564	     -2.14525433	     11.70677923	     -5.35739287	     -7.63245401	     -9.32616356	     10.93698274	      8.79797491	     89.95437384	      0.00000000	      0.00000000	     14.42955495	      9.86998059	     -8.87782595	     48.84226413	     89.95437384	      0.00000000	      0.00000000
      1.46000000	      1.82139038	     -7.38947229	      3.09180979	      0.77633594	      0.87994544	     -0.99479101	     18.88187403	      8.39522096	    -12.99256868	    -31.90582910	     -0.55686177	      6.36222318	     -6.93934294	      4.57912172	      5.55203262	     12.98649241	      7.50625345	    -62.18620518	     -1.08535403	    -11.98761667	      9.60254125	    -10.89905386	     -2.32264676	     11.56371891	     -4.77322012	     -6.88338279	     -9.56030366	     11.22788859	      9.17202292	     89.95437384	      0.00000000	      0.00000000	     13.90963771	      9.67242166	     -9.37721188	     47.60122462	     89.95437384	      0.00000000	      0.00000000
      1.47000000	      1.94292622	     -7.21478922	      2.82405953	      0.78920757	      0.88263286	     -0.99347583	     17.22795835	      8.48180520	    -12.77300673	    -31.00479715	     -0.54113579	      6.92313999	     -6.34551623	      4.21522260	      7.13225056	     12.66717777	      7.57391823	    -62.71603372	     -1.09460128	    -10.39632937	      8.79418028	    -10.97273613	     -2.52536379	     11.28115193	     -4.16298160	     -6.06119169	     -9.73882064	     11.76701940	      9.50921614	     89.95437384	      0.00000000	      0.00000000	     13.33290521	      9.50559946	     -9.79519377	     46.25291309	     89.95437384	      0.00000000	      0.00000000
